<svg xmlns="http://www.w3.org/2000/svg" width="490" height="490" viewBox="0 0 490 490"><defs><style>.cls-1{fill:#8b5933;}</style></defs><g id="Layer_2" data-name="Layer 2"><circle class="cls-1" cx="245" cy="245" r="242.67"/><path d="M135.46,70.81c.72,1.44-1.49,4.39-3.88,6.2-6.26,4.75-13.78,1.79-15.31,5.18-.7,1.58.94,2.17.91,5.92,0,3.93-1.83,4.46-1.82,8.19,0,.89,0,5.07,2.73,7.28,1.87,1.52,3.76,1.1,4.1,2.27.4,1.41-2.22,2.4-3.19,5-1.36,3.68,1.62,7.86,1.83,8.19,3.49,5.57,10,2.61,13.19,6.82,3.42,4.56.2,13-2.28,17.29-4.46,7.72-10,7.83-12.28,14.11-1.86,5.17-.09,10.62,1.82,14.56a91.86,91.86,0,0,0,7.28,14.56c3.39,5.48,5.07,6.83,5.87,10.65,1.23,5.84-1.51,8.17-1.05,13.47.32,3.55,2.08,8.54,9,14.23q1.77-10.59,3.17-10.54t2.63,12.65a78.67,78.67,0,0,1,5.27,9.48c1,2,4.56,10,7,24.68,2.6,15.69,4.18,23.74.12,29.2-2.82,3.79-7.43,6.27-6.78,9.75.46,2.45,3.24,3.77,7.43,5.75,4.46,2.11,9.52,4.51,15.6,2.94a14.06,14.06,0,0,0,7.29-4c5.2-5.94,0-15.21,0-25.48,0,0,.32-4.39,10-30.49l6.37,1.82c2.5,9.31,4.45,17.34,5.92,23.66,4.6,19.89,4,25.56,1.36,30.49-2.16,3.95-4.42,4.84-3.95,7.11,1.25,6.08,19.86,11.15,28.07,3.35a13.63,13.63,0,0,0,3.64-6.37q.9-24.33,1.82-48.68a35.52,35.52,0,0,0,15,5.58c3.76.44,7,.12,8.23,2.15s-1.1,3.88-1.36,7.74c-.37,5.35,3.69,7,6.82,14.56,1.44,3.47,3.75,9,2.28,14.56-2.21,8.24-11,9.42-10.47,13.65.53,4.54,11.36,9.31,20.48,6.37,8-2.58,13.57-10.74,13.19-17.75-.33-6.12-5-7.63-6.37-14.1-1.59-7.51,2.73-14.84,6.83-20l16.83,2.27a91.74,91.74,0,0,1,10,15.93c6.34,12.83,11.35,21.82,9.1,31.85-1.73,7.71-6.33,10.35-4.84,13.61,2.31,5,15.58,3.81,26.19,2.08,1.06-13.41-1.19-23.15-3.5-29.66-2.25-6.31-4.78-10.17-7.16-18.7a85.09,85.09,0,0,1-3.07-19.58,33,33,0,0,0,19,2.63c1.69-.29,10.6-1.82,17.53-8.76,3.8-3.8,4.45-6.66,8.48-8s5.24.69,10.22-.14c6-1,6.37-4.34,12-5.85,7.75-2.08,14.37,2.33,14.9,1.17.74-1.62-12.81-9-12.13-10.37.44-.91,6.3,1.59,6.72.73s-3.91-5.26-9.35-5.7-10.05,3.32-13.29,6-2.81,3.29-6.43,6.28c-3.39,2.8-5.58,3.75-9.06,5.85-9.13,5.48-7.84,7.18-13.15,9.64-.52.24-12.91,5.77-20.89-.15-2.73-2-4-4.53-5.85-8.18a45,45,0,0,1-4.4-15.45c-1.55-12.79-17.13-23.75-29.93-32.76C281,194.27,274.14,196,255.9,180.85c-15.49-12.89-15.11-17.95-14.41-19.92,1-2.76,4.47-4.71,7.63-4.66,4,.06,7.94,3.41,9.32,8.48a34.36,34.36,0,0,0,1.27-18.65c-2.57-11.19-11.13-18.57-10.17-19.5.41-.4,2.38.53,8.9,5.93-1.24-7.63-4.21-12.09-7.2-14.83-3.23-3-5.49-3-7.63-5.94-3.85-5.26.52-10.44-1.27-16.53-1.91-6.49-6.54-10.83-39.85-31.36-8.7-5.37-14.53-8.86-14-10.17s7,.16,12.71,1.69C198.08,51.78,190,43.55,177.06,41c-13.65-2.71-30.94,1.25-33.48,8.48-.4,1.13-.92,3.73-3,4.66-2.21,1-3.61-1.11-6.36-.85-4.43.42-4.76,7.37-10.59,11A14.9,14.9,0,0,1,116,66.41a29.68,29.68,0,0,0,11.44,3.39C131.73,70.15,134.76,69.42,135.46,70.81Z"/><path d="M435.6,340.48l-17.22,5-12.77,5-236.3-45-32.65-6.11-10.8,8.68L93.27,296.8l-21,11.86v.44l-.7-.44v28.8l16.2,10.79,4.44,20,39.21,21.16L169,405l9.88,19.73,38.59,25.67,49.11,36.32a242.16,242.16,0,0,0,121-45.92,247.13,247.13,0,0,0,77.24-92.93Z"/></g></svg>