<svg xmlns="http://www.w3.org/2000/svg" width="520" height="250" viewBox="0 0 520 250"><defs><style>.cls-1{fill:#fff;}</style></defs><g id="Layer_7" data-name="Layer 7"><path d="M388.63,3.14c-16.54,0-51.35,9.56-83.65,28-18,10.25-29.71,20.5-48.28,19.68C239.82,50,230.45,40.73,215,31.11c-33.88-21.11-70.32-28-83.65-28C58.92,3.14.18,57.69.18,125c0,71.76,68.72,121.27,131.19,121.85,43.29.4,74.89-22.76,86.12-31.9a90.42,90.42,0,0,1,91.32-1.32c11.36,10,40.12,32.26,79.82,33.22,62.92,1.53,131.19-51.08,131.19-121.85C519.82,57.69,461.08,3.14,388.63,3.14Z"/><ellipse class="cls-1" cx="123.46" cy="125" rx="105.3" ry="101.54"/><ellipse class="cls-1" cx="394.74" cy="125" rx="105.3" ry="101.54"/><path d="M388.47,80.69c-4.16-3.72-5.59-7.18-6.14-9.64-1-4.49.5-7.83-1.57-9.39-1.57-1.2-4.54-.82-5.47.6s.66,3.31,2.69,8.53c2.25,5.77,3.37,8.65,2.33,11.26-1.2,3-3.88,2.71-5.89,6.8-.86,1.74-1.31,2.61-2.26,4.31-.33.59-.73,1.26-1.24,2A14,14,0,0,1,369,97.46s-1.65,1.58-10.42,6.34c-.85-.42-3.51-1.59-5.89-.45-1.46.69-2.19,2-3.17,4.07-3,6.36-4.44,9.54-3.63,11.33,1.49,3.29,7.94,4.8,15.41,2.72,9.25-9.14,16.33-10.81,21.3-10.42,3.94.31,7.81,2,12.23,0,4.79-2.21,4.9-6.37,7.25-6.8,5.86-1.06,18.87,22.31,21.75,47.13,1.21,10.33,4.74,38-13.14,62.08C401.26,226.15,389.09,229,390.28,232c1.67,4.27,25.73.8,46.22-8.61,16.32-7.49,30.59-12.27,34.9-24.92,1.42-4.19,1.78-9.1-3.18-25.38-6-19.59-11.59-38-27.19-58.91A157.86,157.86,0,0,0,407.5,81.14a14.57,14.57,0,0,0,8.61-5.44c1.53-2.17,3-5.78,1.81-6.79s-4.34,1-5,1.36a25.78,25.78,0,0,0-9.52,4.07c-3.63,2.56-4.76,4.94-6.34,4.54-3-.78-3.11-10.5-3.11-11,0-5.66,1.51-8.47.1-9.48s-4.43.18-5.65,2.26c-1.41,2.42.51,4.86,1.13,9.57A23.83,23.83,0,0,1,388.47,80.69Z"/><path d="M139.45,87.61c9.4,5,7.43,9.12,22.43,22.57,8.81,7.9,11.41,8.19,13,13,2.86,8.37-.62,20.58-7.3,23.7-1.47.68-3.77,1.24-25.57-7.9-9.75-4.09-13-5.78-17.73-4.51-5.48,1.47-6.93,5.36-11.48,5.07-6.6-.41-9.45-8.94-11.58-8-2.62,1.13-2.47,15.77,4.27,29.45,7.85,15.91,17.67,16.42,25.57,29.33,4.65,7.62,8.92,20,6.26,40.62a90.46,90.46,0,0,1-45.09.17c-29.17-7.45-46.51-27.53-52.47-35.14a182.79,182.79,0,0,1,.52-29.34c2.08-21.14,6.41-65,36.52-86.88C83,75.26,98,66.07,122.75,67.3c-1,3-1.82,7.44,0,11.29C125.39,84.15,131.21,83.26,139.45,87.61Z"/></g></svg>